# xmcd CD database file
#
# Track frame offsets:
#	150
#	17412
#	34670
#	54140
#	69462
#	83200
#	96525
#	113887
#	133522
#	148217
#	165130
#	174000
#
# Disc length: 2464 seconds
#
# Revision: 0
# Processed by: cddbd v1.4PL0 Copyright (c) Steve Scherf et al.
# Submitted via: CDex 1.50beta10
#
DISCID=8f099e0c
DTITLE=Ana Person - Que eu traga na Canção
DYEAR=2000
DGENRE=New Age
TTITLE0=No Instante da Canção
TTITLE1=Luz Interior
TTITLE2=Vera amiko
TTITLE3=Oração de São Francisco
TTITLE4=Cabelo de Fogo
TTITLE5=Tudo pode Mudar!
TTITLE6=Brasis!
TTITLE7=Meu orgulho é ser teu filho
TTITLE8=Vida Afora
TTITLE9=É Natal em Mim
TTITLE10=Querida Mãe
TTITLE11=Que eu traga na canção
EXTD=YEAR: 2000
EXTT0=
EXTT1=
EXTT2=
EXTT3=
EXTT4=
EXTT5=
EXTT6=
EXTT7=
EXTT8=
EXTT9=
EXTT10=
EXTT11=
PLAYORDER=
